<?xml version="1.0" encoding="UTF-8"?>
<svg width="200" height="200" viewBox="0 0 200 200" xmlns="http://www.w3.org/2000/svg">
    <!-- Background Circle -->
    <circle cx="100" cy="100" r="90" fill="#007AFF" />
    
    <!-- Microphone Icon -->
    <path d="M100 130c16.569 0 30-13.431 30-30V60c0-16.569-13.431-30-30-30S70 43.431 70 60v40c0 16.569 13.431 30 30 30z" 
          fill="white"/>
    <path d="M140 100c0 22.091-17.909 40-40 40s-40-17.909-40-40H50c0 25.591 19.271 46.72 44 49.673V170h12v-20.327c24.729-2.953 44-24.082 44-49.673h-10z" 
          fill="white"/>
    
    <!-- Sound Waves -->
    <path d="M70 80c0-16.569 13.431-30 30-30" stroke="white" stroke-width="4" fill="none">
        <animate attributeName="opacity" values="0.2;1;0.2" dur="2s" repeatCount="indefinite"/>
    </path>
    <path d="M60 80c0-22.091 17.909-40 40-40" stroke="white" stroke-width="4" fill="none">
        <animate attributeName="opacity" values="0.2;1;0.2" dur="2s" repeatCount="indefinite" begin="0.5s"/>
    </path>
</svg>
